<?xml version="1.0" encoding="UTF-8"?><svg id="Capa_1" xmlns="http://www.w3.org/2000/svg" viewBox="0 0 38.16 33.78"><defs><style>.cls-1{fill:#010101;}.cls-2{fill:#fff;font-family:Inter-Medium, Inter;font-size:3.83px;font-variation-settings:'wght' 500, 'slnt' 0;font-weight:500;}</style></defs><text class="cls-2" transform="translate(2440.63 -489.2) rotate(-84.2)"><tspan x="0" y="0">S</tspan></text><text class="cls-2" transform="translate(2440.86 -491.53) rotate(-73.43)"><tspan x="0" y="0">c</tspan></text><text class="cls-2" transform="translate(2441.48 -493.53) rotate(-64.8)"><tspan x="0" y="0">r</tspan></text><text class="cls-2" transform="translate(2442 -494.74) rotate(-56.3)"><tspan x="0" y="0">o</tspan></text><text class="cls-2" transform="translate(2443.27 -496.56) rotate(-48.76)"><tspan x="0" y="0">l</tspan></text><text class="cls-2" transform="translate(2443.87 -497.25) rotate(-44.32)"><tspan x="0" y="0">l</tspan></text><text class="cls-2" transform="translate(2444.52 -497.89) rotate(-39.7)"><tspan x="0" y="0"> </tspan></text><text class="cls-2" transform="translate(2445.2 -498.53) rotate(-31.8)"><tspan x="0" y="0">d</tspan></text><text class="cls-2" transform="translate(2447.13 -499.73) rotate(-20.82)"><tspan x="0" y="0">o</tspan></text><text class="cls-2" transform="translate(2449.12 -500.56) rotate(-8.14)"><tspan x="0" y="0">w</tspan></text><text class="cls-2" transform="translate(2452.11 -500.95) rotate(4.35)"><tspan x="0" y="0">n</tspan></text><text class="cls-2" transform="translate(2454.32 -500.75) rotate(12.1)"><tspan x="0" y="0"> </tspan></text><text class="cls-2" transform="translate(2455.25 -500.56) rotate(17.81)"><tspan x="0" y="0">f</tspan></text><text class="cls-2" transform="translate(2456.47 -500.21) rotate(26.25)"><tspan x="0" y="0">o</tspan></text><text class="cls-2" transform="translate(2458.45 -499.21) rotate(35.07)"><tspan x="0" y="0">r</tspan></text><text class="cls-2" transform="translate(2459.59 -498.4) rotate(40.82)"><tspan x="0" y="0"> </tspan></text><text class="cls-2" transform="translate(2460.36 -497.89) rotate(50.98)"><tspan x="0" y="0">m</tspan></text><text class="cls-2" transform="translate(2462.37 -495.33) rotate(64.27)"><tspan x="0" y="0">o</tspan></text><text class="cls-2" transform="translate(2463.31 -493.31) rotate(73.26)"><tspan x="0" y="0">r</tspan></text><text class="cls-2" transform="translate(2463.73 -492.05) rotate(81.67)"><tspan x="0" y="0">e</tspan></text><path class="cls-1" d="m30.24,10.37l-2.97-.36-1.44-1.24-.26-3.12L30.63.6v4.69l4.55.15-4.94,4.94Zm-2.57-1.26l2.23.27,3.07-3.07-3.28-.11v-3.32l-3.13,3.13.19,2.3.93.8Z"/><path class="cls-1" d="m16,33.18c-7.18,0-13.01-5.84-13.01-13.01S8.82,7.15,16,7.15s13.01,5.84,13.01,13.01-5.84,13.01-13.01,13.01Zm0-25.08c-6.65,0-12.07,5.41-12.07,12.07s5.41,12.07,12.07,12.07,12.07-5.41,12.07-12.07-5.41-12.07-12.07-12.07Z"/><path class="cls-1" d="m16,28.85c-4.79,0-8.68-3.89-8.68-8.68s3.89-8.68,8.68-8.68,8.68,3.89,8.68,8.68-3.89,8.68-8.68,8.68Zm0-16.41c-4.26,0-7.73,3.47-7.73,7.73s3.47,7.73,7.73,7.73,7.73-3.47,7.73-7.73-3.47-7.73-7.73-7.73Z"/><path class="cls-1" d="m16,25.15c-2.75,0-4.99-2.24-4.99-4.99s2.24-4.99,4.99-4.99,4.99,2.24,4.99,4.99-2.24,4.99-4.99,4.99Zm0-9.03c-2.23,0-4.04,1.81-4.04,4.04s1.81,4.04,4.04,4.04,4.04-1.81,4.04-4.04-1.81-4.04-4.04-4.04Z"/><circle class="cls-1" cx="16" cy="20.17" r="1.83"/><polygon class="cls-1" points="15.32 20.3 26.29 8.64 27.39 9.5 15.84 21.07 15.32 20.3"/></svg>