<?xml version="1.0" encoding="UTF-8"?><svg id="Capa_1" xmlns="http://www.w3.org/2000/svg" viewBox="0 0 38.16 33.78"><defs><style>.cls-1{stroke-width:.15px;}.cls-1,.cls-2{stroke:#000;}.cls-1,.cls-2,.cls-3{stroke-miterlimit:10;}.cls-4{fill:#fff;font-family:Inter-Medium, Inter;font-size:3.83px;font-variation-settings:'wght' 500, 'slnt' 0;font-weight:500;}.cls-2,.cls-3{stroke-width:.05px;}.cls-3{stroke:#010101;}</style></defs><text class="cls-4" transform="translate(2399.51 -525.77) rotate(-84.2)"><tspan x="0" y="0">S</tspan></text><text class="cls-4" transform="translate(2399.75 -528.09) rotate(-73.43)"><tspan x="0" y="0">c</tspan></text><text class="cls-4" transform="translate(2400.37 -530.1) rotate(-64.8)"><tspan x="0" y="0">r</tspan></text><text class="cls-4" transform="translate(2400.89 -531.31) rotate(-56.3)"><tspan x="0" y="0">o</tspan></text><text class="cls-4" transform="translate(2402.15 -533.13) rotate(-48.76)"><tspan x="0" y="0">l</tspan></text><text class="cls-4" transform="translate(2402.75 -533.82) rotate(-44.32)"><tspan x="0" y="0">l</tspan></text><text class="cls-4" transform="translate(2403.41 -534.46) rotate(-39.7)"><tspan x="0" y="0"> </tspan></text><text class="cls-4" transform="translate(2404.09 -535.09) rotate(-31.8)"><tspan x="0" y="0">d</tspan></text><text class="cls-4" transform="translate(2406.02 -536.3) rotate(-20.82)"><tspan x="0" y="0">o</tspan></text><text class="cls-4" transform="translate(2408.01 -537.12) rotate(-8.14)"><tspan x="0" y="0">w</tspan></text><text class="cls-4" transform="translate(2411 -537.52) rotate(4.35)"><tspan x="0" y="0">n</tspan></text><text class="cls-4" transform="translate(2413.2 -537.31) rotate(12.1)"><tspan x="0" y="0"> </tspan></text><text class="cls-4" transform="translate(2414.14 -537.13) rotate(17.81)"><tspan x="0" y="0">f</tspan></text><text class="cls-4" transform="translate(2415.36 -536.78) rotate(26.25)"><tspan x="0" y="0">o</tspan></text><text class="cls-4" transform="translate(2417.33 -535.78) rotate(35.07)"><tspan x="0" y="0">r</tspan></text><text class="cls-4" transform="translate(2418.48 -534.97) rotate(40.82)"><tspan x="0" y="0"> </tspan></text><text class="cls-4" transform="translate(2419.24 -534.46) rotate(50.98)"><tspan x="0" y="0">m</tspan></text><text class="cls-4" transform="translate(2421.25 -531.9) rotate(64.27)"><tspan x="0" y="0">o</tspan></text><text class="cls-4" transform="translate(2422.2 -529.87) rotate(73.26)"><tspan x="0" y="0">r</tspan></text><text class="cls-4" transform="translate(2422.62 -528.62) rotate(81.67)"><tspan x="0" y="0">e</tspan></text><path class="cls-1" d="m22.54,26.81H5.14c-1.2,0-2.17-.97-2.17-2.17V3.64c0-1.2.97-2.17,2.17-2.17h25.2c1.2,0,2.17.97,2.17,2.17v17.03h-.83V3.64c0-.74-.6-1.34-1.34-1.34H5.14c-.74,0-1.34.6-1.34,1.34v21.01c0,.74.6,1.34,1.34,1.34h17.4v.83Z"/><path class="cls-1" d="m28.54,32.31c-3.66,0-6.65-2.98-6.65-6.65s2.98-6.65,6.65-6.65,6.65,2.98,6.65,6.65-2.98,6.65-6.65,6.65Zm0-12.46c-3.21,0-5.81,2.61-5.81,5.81s2.61,5.81,5.81,5.81,5.81-2.61,5.81-5.81-2.61-5.81-5.81-5.81Z"/><polygon class="cls-3" points="27.9 27.64 25.87 25.71 26.45 25.11 27.86 26.45 30.68 23.4 31.29 23.97 27.9 27.64"/><circle cx="6.89" cy="4.98" r=".74"/><circle cx="9.66" cy="4.98" r=".74"/><circle cx="12.44" cy="4.98" r=".74"/><polygon class="cls-3" points="14.27 19.12 11.52 16.32 14.08 13.84 14.66 14.44 12.7 16.34 14.86 18.53 14.27 19.12"/><polygon class="cls-3" points="20.17 19.12 19.59 18.52 21.55 16.63 19.39 14.43 19.98 13.85 22.73 16.64 20.17 19.12"/><rect class="cls-3" x="14" y="15.9" width="6.78" height=".83" transform="translate(-1.84 30.41) rotate(-79.43)"/><rect class="cls-2" x="3.39" y="6.7" width="28.71" height=".83"/></svg>