<?xml version="1.0" encoding="UTF-8"?><svg id="Capa_1" xmlns="http://www.w3.org/2000/svg" viewBox="0 0 22.46 22.2"><defs><style>.cls-1{stroke:#010101;stroke-miterlimit:10;stroke-width:.75px;}.cls-2{fill:#fff;font-family:Inter-Medium, Inter;font-size:3.83px;font-variation-settings:'wght' 500, 'slnt' 0;font-weight:500;}</style></defs><text class="cls-2" transform="translate(2549.36 -548.45) rotate(-84.2)"><tspan x="0" y="0">S</tspan></text><text class="cls-2" transform="translate(2549.59 -550.77) rotate(-73.43)"><tspan x="0" y="0">c</tspan></text><text class="cls-2" transform="translate(2550.21 -552.78) rotate(-64.8)"><tspan x="0" y="0">r</tspan></text><text class="cls-2" transform="translate(2550.73 -553.98) rotate(-56.3)"><tspan x="0" y="0">o</tspan></text><text class="cls-2" transform="translate(2552 -555.81) rotate(-48.76)"><tspan x="0" y="0">l</tspan></text><text class="cls-2" transform="translate(2552.59 -556.49) rotate(-44.32)"><tspan x="0" y="0">l</tspan></text><text class="cls-2" transform="translate(2553.25 -557.13) rotate(-39.7)"><tspan x="0" y="0"> </tspan></text><text class="cls-2" transform="translate(2553.93 -557.77) rotate(-31.8)"><tspan x="0" y="0">d</tspan></text><text class="cls-2" transform="translate(2555.86 -558.98) rotate(-20.82)"><tspan x="0" y="0">o</tspan></text><text class="cls-2" transform="translate(2557.85 -559.8) rotate(-8.14)"><tspan x="0" y="0">w</tspan></text><text class="cls-2" transform="translate(2560.84 -560.2) rotate(4.35)"><tspan x="0" y="0">n</tspan></text><text class="cls-2" transform="translate(2563.04 -559.99) rotate(12.1)"><tspan x="0" y="0"> </tspan></text><text class="cls-2" transform="translate(2563.98 -559.8) rotate(17.81)"><tspan x="0" y="0">f</tspan></text><text class="cls-2" transform="translate(2565.2 -559.46) rotate(26.25)"><tspan x="0" y="0">o</tspan></text><text class="cls-2" transform="translate(2567.17 -558.46) rotate(35.07)"><tspan x="0" y="0">r</tspan></text><text class="cls-2" transform="translate(2568.32 -557.64) rotate(40.82)"><tspan x="0" y="0"> </tspan></text><text class="cls-2" transform="translate(2569.08 -557.13) rotate(50.98)"><tspan x="0" y="0">m</tspan></text><text class="cls-2" transform="translate(2571.1 -554.58) rotate(64.27)"><tspan x="0" y="0">o</tspan></text><text class="cls-2" transform="translate(2572.04 -552.55) rotate(73.26)"><tspan x="0" y="0">r</tspan></text><text class="cls-2" transform="translate(2572.46 -551.3) rotate(81.67)"><tspan x="0" y="0">e</tspan></text><path class="cls-1" d="m2.49,19.86c4.9,0,9.8,0,14.7,0,.9,0,1.81,0,2.71,0,.01,0,.03,0,.04,0,.02-.04.05-.09.05-.13,0-2.37,0-4.74,0-7.11,0-.46-.01-.92-.02-1.37,0-.09,0-.15.12-.15.55,0,1.09,0,1.66,0v.17c0,2.83,0,5.65,0,8.48,0,.48-.12.94-.46,1.3-.28.29-.63.49-1.04.54-.26.03-.53.04-.8.04-5.59,0-11.18,0-16.78,0-.34,0-.68,0-.98-.17-.4-.22-.7-.53-.84-.97-.02-.06-.05-.12-.07-.18-.02-.04-.04-.09-.06-.13,0-5.99,0-11.99,0-17.98.02-.03.04-.07.06-.1-.02-.02-.04-.04-.06-.06,0-.01,0-.02,0-.03.02-.02.06-.04.06-.07.2-.69.63-1.14,1.35-1.29.03,0,.07-.02.1-.03.03-.01.07-.02.1-.03,2.97,0,5.94,0,8.91,0,0,.51,0,1.03,0,1.54,0,.16-.05.2-.2.2-2.7,0-5.4,0-8.1,0-.17,0-.33.02-.46.03,0,.29,0,.57,0,.85,0,4.38,0,8.75,0,13.13,0,1.04,0,2.07,0,3.11,0,.13,0,.26,0,.39.01,0,.02.02.03.02Z"/><path class="cls-1" d="m21.06.58c.08.05.17.09.25.14.31.18.43.47.43.79,0,1.97,0,3.94,0,5.92,0,.09,0,.15-.12.15-.52,0-1.04,0-1.56,0-.02,0-.03,0-.07-.02v-3.95c-.06.03-.12.04-.16.08-.08.07-.15.14-.22.22-2.33,2.33-4.66,4.66-6.98,6.98-.18.18-.15.18-.32,0-.35-.35-.7-.7-1.03-1.03,2.49-2.49,4.98-4.98,7.47-7.47,0-.02-.02-.04-.03-.06h-3.98c0-.18,0-.32,0-.47,0-.34-.02-.69-.02-1.03,0-.09.02-.18.03-.27,2.1,0,4.21,0,6.31,0Z"/></svg>