<?xml version="1.0" encoding="UTF-8"?><svg id="Capa_1" xmlns="http://www.w3.org/2000/svg" viewBox="0 0 29.43 29.69"><defs><style>.cls-1{fill:#161237;}.cls-1,.cls-2{stroke-width:0px;}.cls-2{fill:#fff;}</style></defs><rect class="cls-1" x="0" y=".13" width="29.43" height="29.43" rx="14.72" ry="14.72"/><path class="cls-2" d="m15.95,10.3c-.04.09-.05.16-.09.21-.47.59-.94,1.17-1.42,1.76-2.09,2.59-4.18,5.18-6.27,7.77-.05.06-.08.15-.08.23,0,.84,0,1.69,0,2.53,0,.05,0,.1,0,.15h13.28v-3.71h-7.47c.05-.09.08-.16.12-.21,2.41-3.08,4.83-6.17,7.25-9.25.07-.09.1-.17.1-.29,0-.86,0-1.72,0-2.58v-.15h-13v3.55h7.59Z"/></svg>