<?xml version="1.0" encoding="UTF-8"?><svg id="Capa_1" xmlns="http://www.w3.org/2000/svg" viewBox="0 0 38.16 33.78"><defs><style>.cls-1{fill:#fff;font-family:Inter-Medium, Inter;font-size:3.83px;font-variation-settings:'wght' 500, 'slnt' 0;font-weight:500;}.cls-2{stroke:#000;stroke-miterlimit:10;stroke-width:.05px;}</style></defs><text class="cls-1" transform="translate(2481.34 -525.77) rotate(-84.2)"><tspan x="0" y="0">S</tspan></text><text class="cls-1" transform="translate(2481.58 -528.09) rotate(-73.43)"><tspan x="0" y="0">c</tspan></text><text class="cls-1" transform="translate(2482.2 -530.1) rotate(-64.8)"><tspan x="0" y="0">r</tspan></text><text class="cls-1" transform="translate(2482.72 -531.31) rotate(-56.3)"><tspan x="0" y="0">o</tspan></text><text class="cls-1" transform="translate(2483.98 -533.13) rotate(-48.76)"><tspan x="0" y="0">l</tspan></text><text class="cls-1" transform="translate(2484.58 -533.82) rotate(-44.32)"><tspan x="0" y="0">l</tspan></text><text class="cls-1" transform="translate(2485.23 -534.46) rotate(-39.7)"><tspan x="0" y="0"> </tspan></text><text class="cls-1" transform="translate(2485.92 -535.09) rotate(-31.8)"><tspan x="0" y="0">d</tspan></text><text class="cls-1" transform="translate(2487.85 -536.3) rotate(-20.82)"><tspan x="0" y="0">o</tspan></text><text class="cls-1" transform="translate(2489.84 -537.12) rotate(-8.14)"><tspan x="0" y="0">w</tspan></text><text class="cls-1" transform="translate(2492.83 -537.52) rotate(4.35)"><tspan x="0" y="0">n</tspan></text><text class="cls-1" transform="translate(2495.03 -537.31) rotate(12.1)"><tspan x="0" y="0"> </tspan></text><text class="cls-1" transform="translate(2495.97 -537.13) rotate(17.81)"><tspan x="0" y="0">f</tspan></text><text class="cls-1" transform="translate(2497.19 -536.78) rotate(26.25)"><tspan x="0" y="0">o</tspan></text><text class="cls-1" transform="translate(2499.16 -535.78) rotate(35.07)"><tspan x="0" y="0">r</tspan></text><text class="cls-1" transform="translate(2500.31 -534.97) rotate(40.82)"><tspan x="0" y="0"> </tspan></text><text class="cls-1" transform="translate(2501.07 -534.46) rotate(50.98)"><tspan x="0" y="0">m</tspan></text><text class="cls-1" transform="translate(2503.08 -531.9) rotate(64.27)"><tspan x="0" y="0">o</tspan></text><text class="cls-1" transform="translate(2504.03 -529.87) rotate(73.26)"><tspan x="0" y="0">r</tspan></text><text class="cls-1" transform="translate(2504.45 -528.62) rotate(81.67)"><tspan x="0" y="0">e</tspan></text><path d="m2.01,2.35s.03-.02.04-.04c.06-.17.2-.28.39-.28.04,0,.07,0,.11,0,9.91,0,19.81,0,29.72,0,.33,0,.66.03.99.11.85.22,1.55.68,2.09,1.36.34.43.57.91.7,1.43.06.21.08.43.1.65.02.19.01.37.01.56,0,7.22,0,14.44,0,21.66,0,.37-.02.74-.13,1.09-.36,1.22-1.12,2.09-2.3,2.58-.34.14-.69.23-1.05.24-.44.02-.89.02-1.33.02-.2,0-.38-.17-.4-.38,0-.04,0-.09,0-.13,0-.52,0-1.05,0-1.57v-.12s-.08,0-.12,0c-8.11,0-16.23,0-24.34,0-1.31,0-2.61,0-3.92,0-.27,0-.46-.08-.55-.35v-.02s.02-.06.02-.09c0-8.87,0-17.75,0-26.62,0-.03-.01-.06-.02-.09,0-.01,0-.02,0-.04Zm29.82,28.53c.21,0,.41,0,.62,0,.28,0,.55-.05.81-.15.92-.32,1.54-.95,1.87-1.86.12-.32.16-.66.16-1.01,0-6.49,0-12.98,0-19.47v-.1c-.1.1-.18.2-.26.28-.44.45-.96.76-1.55.95-.37.12-.75.17-1.14.17-.17,0-.35,0-.53,0,0,.04,0,.07,0,.1,0,6.99,0,13.98,0,20.97,0,.03,0,.07,0,.1,0,0,.01.01.02.02ZM2.87,2.9v25.78h28.06v-.12c0-6.38,0-12.77,0-19.15,0-.03,0-.07,0-.1,0-.29.18-.46.47-.46.29,0,.57,0,.86,0,.47,0,.92-.08,1.34-.29.98-.5,1.54-1.31,1.67-2.39.05-.39,0-.79-.13-1.17-.31-.93-.93-1.57-1.84-1.91-.34-.13-.69-.17-1.06-.17-9.76,0-19.51,0-29.27,0h-.11Z"/><path class="cls-2" d="m15.27,26.33H6.35V6.18h8.92v20.15Zm-8.46-.46h7.99V6.64h-7.99v19.22Z"/><path class="cls-2" d="m28.61,26.33h-12.49V6.18h12.49v20.15Zm-12.02-.46h11.56V6.64h-11.56v19.22Z"/><path class="cls-2" d="m28.61,11.4h-12.49v-5.22h12.49v5.22Zm-12.02-.46h11.56v-4.3h-11.56v4.3Z"/><path class="cls-2" d="m28.61,16.16h-12.49v-5.22h12.49v5.22Zm-12.02-.46h11.56v-4.29h-11.56v4.29Z"/><path class="cls-2" d="m15.27,16.16H6.35v-5.22h8.92v5.22Zm-8.46-.46h7.99v-4.29h-7.99v4.29Z"/><path class="cls-2" d="m11.04,20.92h-4.69v-5.22h4.69v5.22Zm-4.23-.46h3.76v-4.3h-3.76v4.3Z"/><path class="cls-2" d="m15.27,20.92h-4.69v-5.22h4.69v5.22Zm-4.23-.46h3.76v-4.3h-3.76v4.3Z"/><path class="cls-2" d="m20.5,24.63h-2.84v-7.32h2.84v7.32Zm-2.38-.46h1.92v-6.39h-1.92v6.39Z"/><path class="cls-2" d="m23.73,24.63h-2.84v-7.32h2.84v7.32Zm-2.38-.46h1.92v-6.39h-1.92v6.39Z"/><path class="cls-2" d="m27.07,24.63h-2.84v-7.32h2.84v7.32Zm-2.38-.46h1.92v-6.39h-1.92v6.39Z"/></svg>