<?xml version="1.0" encoding="UTF-8"?><svg id="Capa_1" xmlns="http://www.w3.org/2000/svg" viewBox="0 0 38.16 33.78"><defs><style>.cls-1{fill:#fff;font-family:Inter-Medium, Inter;font-size:3.83px;font-variation-settings:'wght' 500, 'slnt' 0;font-weight:500;}.cls-2{stroke:#010101;stroke-miterlimit:10;stroke-width:.05px;}</style></defs><text class="cls-1" transform="translate(2399.51 -489.2) rotate(-84.2)"><tspan x="0" y="0">S</tspan></text><text class="cls-1" transform="translate(2399.75 -491.53) rotate(-73.43)"><tspan x="0" y="0">c</tspan></text><text class="cls-1" transform="translate(2400.37 -493.53) rotate(-64.8)"><tspan x="0" y="0">r</tspan></text><text class="cls-1" transform="translate(2400.89 -494.74) rotate(-56.3)"><tspan x="0" y="0">o</tspan></text><text class="cls-1" transform="translate(2402.15 -496.56) rotate(-48.76)"><tspan x="0" y="0">l</tspan></text><text class="cls-1" transform="translate(2402.75 -497.25) rotate(-44.32)"><tspan x="0" y="0">l</tspan></text><text class="cls-1" transform="translate(2403.41 -497.89) rotate(-39.7)"><tspan x="0" y="0"> </tspan></text><text class="cls-1" transform="translate(2404.09 -498.53) rotate(-31.8)"><tspan x="0" y="0">d</tspan></text><text class="cls-1" transform="translate(2406.02 -499.73) rotate(-20.82)"><tspan x="0" y="0">o</tspan></text><text class="cls-1" transform="translate(2408.01 -500.56) rotate(-8.14)"><tspan x="0" y="0">w</tspan></text><text class="cls-1" transform="translate(2411 -500.95) rotate(4.35)"><tspan x="0" y="0">n</tspan></text><text class="cls-1" transform="translate(2413.2 -500.75) rotate(12.1)"><tspan x="0" y="0"> </tspan></text><text class="cls-1" transform="translate(2414.14 -500.56) rotate(17.81)"><tspan x="0" y="0">f</tspan></text><text class="cls-1" transform="translate(2415.36 -500.21) rotate(26.25)"><tspan x="0" y="0">o</tspan></text><text class="cls-1" transform="translate(2417.33 -499.21) rotate(35.07)"><tspan x="0" y="0">r</tspan></text><text class="cls-1" transform="translate(2418.48 -498.4) rotate(40.82)"><tspan x="0" y="0"> </tspan></text><text class="cls-1" transform="translate(2419.24 -497.89) rotate(50.98)"><tspan x="0" y="0">m</tspan></text><text class="cls-1" transform="translate(2421.25 -495.33) rotate(64.27)"><tspan x="0" y="0">o</tspan></text><text class="cls-1" transform="translate(2422.2 -493.31) rotate(73.26)"><tspan x="0" y="0">r</tspan></text><text class="cls-1" transform="translate(2422.62 -492.05) rotate(81.67)"><tspan x="0" y="0">e</tspan></text><path class="cls-2" d="m15.84,24.9c-.37-.44-.48-.9-.45-1.4.04-.68-.26-1.17-.82-1.56-1.83-1.26-2.95-3-3.38-5.18-.85-4.27,2.25-8.68,6.56-9.36,4.39-.69,8.43,2.08,9.21,6.46.58,3.25-.53,5.93-3.16,7.93-.68.51-1.09,1.06-1.02,1.93.04.43-.14.81-.44,1.17.45.07.86.21.99.64.18.57.25,1.17-.16,1.7-.09.12-.09.17,0,.29.41.53.34,1.13.16,1.7-.13.4-.49.6-.92.61-.34,0-.69,0-1.04,0-.14,0-.2.03-.2.2,0,.48-.08.95-.16,1.42-.06.38-.28.62-.66.63-.86.02-1.71.02-2.57,0-.36,0-.59-.24-.64-.61-.07-.48-.17-.96-.16-1.45,0-.16-.05-.18-.17-.18-.33,0-.67,0-1,0-.66,0-1.08-.43-1.09-1.1,0-.45-.06-.91.31-1.27.13-.12-.03-.18-.09-.26-.29-.41-.33-1.35-.08-1.77.2-.33.52-.47.96-.53Zm3.24.01c.67,0,1.33,0,2,0,.83,0,1.3-.45,1.27-1.28-.04-.94.36-1.59,1.12-2.12,2.88-2,3.98-5.78,2.66-9.03-1.33-3.28-4.73-5.21-8.23-4.66-3.03.48-5.49,2.77-6.22,5.8-.7,2.91.45,6.05,2.93,7.82.82.59,1.27,1.26,1.22,2.29-.04.72.47,1.18,1.18,1.18.69,0,1.38,0,2.07,0Zm0,2.26c1.06,0,2.12,0,3.18,0,.52,0,.74-.23.75-.74,0-.12,0-.24,0-.36,0-.49-.23-.73-.72-.73-2.14,0-4.28,0-6.42,0-.27,0-.49.08-.63.33-.12.21-.08.44-.08.66,0,.63.2.84.83.84,1.04,0,2.07,0,3.11,0Zm-.04,2.23c1.07,0,2.14,0,3.21,0,.54,0,.75-.22.75-.76,0-.08,0-.17,0-.25,0-.59-.2-.79-.79-.79-1.5,0-3,0-4.5,0-.62,0-1.24,0-1.86,0-.5,0-.71.22-.71.72,0,.11,0,.21,0,.32,0,.54.21.76.76.76,1.05,0,2.09,0,3.14,0Zm.04.43c-.44,0-.88,0-1.32,0-.25,0-.38.11-.35.37.05.38.1.75.14,1.13.02.22.15.32.35.32.77,0,1.55,0,2.32,0,.23,0,.35-.11.37-.34.04-.35.08-.71.13-1.06.05-.32-.1-.43-.4-.42-.42,0-.83,0-1.25,0Z"/><path class="cls-2" d="m19.15,32.22c-.45,0-.91,0-1.37-.02-.42-.01-.71-.28-.77-.73-.02-.11-.03-.23-.05-.34-.06-.37-.12-.75-.11-1.13,0-.02,0-.03,0-.04h-.04c-.33,0-.67,0-1,0-.74-.01-1.22-.5-1.23-1.23v-.14c-.01-.4-.02-.86.34-1.22,0,0-.01-.01-.02-.01-.02-.02-.05-.05-.08-.08-.32-.45-.36-1.46-.08-1.92.18-.29.44-.47.83-.55-.26-.38-.37-.8-.34-1.31.03-.6-.21-1.05-.76-1.44-1.84-1.27-2.99-3.04-3.43-5.26-.41-2.07.09-4.3,1.36-6.12,1.28-1.83,3.22-3.07,5.31-3.4,4.47-.7,8.58,2.19,9.36,6.57.58,3.24-.53,6.03-3.22,8.06-.75.56-1.02,1.09-.96,1.81.03.36-.08.72-.33,1.09.37.08.74.26.88.69.16.52.29,1.21-.18,1.82-.04.05-.04.06-.04.07h0s0,.02.04.06c.49.63.33,1.34.18,1.82-.14.43-.52.69-1.05.7-.35,0-.69,0-1.04,0-.03,0-.05,0-.06,0,0,0,0,.02,0,.06,0,.4-.06.8-.12,1.18l-.04.25c-.07.46-.36.73-.79.74-.4,0-.8.01-1.21.01Zm-2.32-2.53c.08,0,.16.01.22.07.07.07.07.17.07.24-.01.36.05.73.1,1.08.02.12.04.23.05.35.02.18.12.48.51.49.87.02,1.73.02,2.56,0,.31,0,.48-.17.53-.51l.04-.26c.06-.37.12-.76.11-1.14,0-.08,0-.19.08-.26.07-.07.16-.07.26-.08.34,0,.69,0,1.03,0,.24,0,.66-.08.8-.52.22-.68.18-1.16-.14-1.57-.13-.16-.13-.29,0-.46.4-.52.28-1.11.14-1.58-.1-.3-.36-.47-.88-.55l-.23-.04.15-.18c.31-.38.44-.72.41-1.07-.09-1.03.49-1.61,1.07-2.05,2.64-2,3.68-4.62,3.11-7.8-.76-4.24-4.74-7.02-9.06-6.35-2.03.32-3.9,1.51-5.13,3.28-1.23,1.76-1.71,3.92-1.32,5.91.43,2.15,1.54,3.87,3.32,5.09.63.43.92.98.88,1.67-.03.52.1.93.42,1.31l.16.19-.25.03c-.44.06-.69.2-.86.46-.23.38-.19,1.26.07,1.63,0,0,.02.02.04.03.05.04.12.11.12.21,0,.07-.03.13-.09.19-.29.28-.29.65-.28,1.03v.14c.01.6.37.96.96.97.33,0,.66,0,1,0h.02Zm.02.25h0Zm2.22,1.85c-.39,0-.77,0-1.16,0-.28,0-.46-.16-.49-.44-.03-.24-.06-.48-.09-.72l-.05-.41c-.02-.16.01-.29.09-.38.08-.09.21-.14.39-.14h1.7c.29,0,.58,0,.87,0,.21-.01.36.04.45.15.09.1.12.24.09.43-.06.4-.1.74-.13,1.05-.03.3-.21.46-.5.46-.39,0-.77,0-1.16,0Zm-1.31-1.83c-.06,0-.15,0-.18.05-.03.04-.03.12-.03.17l.05.41c.03.24.06.49.09.73.02.15.07.2.22.2.77,0,1.55,0,2.32,0,.16,0,.22-.06.24-.22.03-.32.08-.66.14-1.07.01-.07.01-.17-.03-.21-.04-.04-.11-.05-.24-.06-.29,0-.58,0-.88,0h-1.7s0,0,0,0Zm3.12-.43c-.31,0-.61,0-.92,0h-1.81c-.75,0-1.5,0-2.24,0-.61,0-.89-.28-.89-.89,0-.11,0-.22,0-.32,0-.58.28-.85.85-.86.43,0,.87,0,1.3,0h5.05c.66,0,.92.26.93.93,0,.08,0,.17,0,.25,0,.62-.28.89-.89.9-.46,0-.92,0-1.38,0Zm-1.84-.27h.92c.76,0,1.53,0,2.29,0,.46,0,.61-.15.62-.63,0-.08,0-.17,0-.25,0-.52-.14-.66-.66-.66h-5.05c-.43,0-.87,0-1.3,0-.42,0-.57.16-.58.59,0,.11,0,.21,0,.32,0,.47.16.62.62.62.75,0,1.5,0,2.24,0h.9Zm-2.11-1.96c-.32,0-.64,0-.96,0-.36,0-.59-.07-.74-.22-.15-.15-.22-.39-.22-.75,0-.05,0-.09,0-.14,0-.18-.01-.39.1-.59.15-.26.41-.39.75-.39h1.61c1.61,0,3.21,0,4.82,0,.56,0,.85.29.86.86,0,.12,0,.24,0,.36,0,.59-.29.87-.88.87-.73,0-1.47,0-2.2,0h-.98s-.62,0-.62,0c-.51,0-1.01,0-1.52,0Zm2.14-1.83c-.54,0-1.07,0-1.61,0h-1.61c-.25,0-.41.08-.52.26-.08.13-.07.28-.06.44,0,.05,0,.1,0,.15,0,.29.04.46.14.56.1.1.27.14.55.14.83,0,1.66,0,2.48,0h.62s.98,0,.98,0c.73,0,1.47,0,2.2,0,.44,0,.61-.17.61-.61,0-.12,0-.23,0-.35,0-.42-.18-.6-.59-.6-1.07,0-2.14,0-3.21,0Zm-1.28-.43c-.27,0-.53,0-.8,0-.41,0-.76-.14-1-.4-.22-.24-.33-.56-.32-.93.05-.91-.3-1.56-1.16-2.17-2.5-1.78-3.7-4.97-2.98-7.96.75-3.1,3.23-5.42,6.34-5.91,3.58-.57,7.01,1.38,8.37,4.74,1.34,3.31.2,7.17-2.71,9.2-.77.53-1.09,1.15-1.06,2,.02.44-.1.79-.33,1.03-.25.26-.61.39-1.07.39-.44,0-.89,0-1.33,0h-1.3c-.21,0-.42,0-.64,0Zm1.31-17.19c-.39,0-.79.03-1.18.09-2.99.47-5.39,2.71-6.11,5.7-.69,2.88.46,5.96,2.87,7.67.93.66,1.32,1.4,1.27,2.41-.01.29.07.55.24.73.19.2.47.31.81.31.48,0,.95,0,1.43,0h1.3c.44,0,.89,0,1.33,0,.39,0,.68-.1.88-.31.19-.19.27-.47.26-.84-.04-.94.34-1.65,1.18-2.24,2.81-1.95,3.91-5.68,2.62-8.87-1.16-2.87-3.89-4.67-6.9-4.67Z"/><path class="cls-2" d="m16.32,9.5c.04.12-.07.14-.14.17-1.17.64-2.07,1.54-2.69,2.72-.08.16-.16.15-.31.09-.18-.08-.15-.17-.08-.3.67-1.23,1.62-2.19,2.84-2.87.26-.15.3.02.37.19Z"/><path class="cls-2" d="m17.53,9.01c-.12.23-.35.23-.52.27-.18.04-.21-.19-.19-.27.06-.22.3-.21.48-.25.22-.05.11.19.23.25Z"/><path class="cls-2" d="m9.72,24.55c-.1,0-.21-.04-.29-.12-.16-.16-.16-.42,0-.57l2.17-2.17c.16-.16.41-.16.57,0,.16.16.16.41,0,.57l-2.17,2.17c-.08.08-.18.12-.29.12Z"/><path class="cls-2" d="m5.6,14.98c-.21,0-.39-.17-.4-.39-.01-.22.16-.41.39-.43l3.07-.15c.2,0,.41.16.42.39.01.22-.16.41-.39.43l-3.07.15h-.02Z"/><path class="cls-2" d="m11.7,7.57c-.1,0-.2-.03-.27-.11l-2.27-2.07c-.17-.15-.18-.41-.03-.57.15-.17.41-.18.57-.03l2.27,2.07c.17.15.18.41.03.57-.08.09-.19.13-.3.13Z"/><path class="cls-2" d="m19.03,5.43h-.01c-.22,0-.4-.19-.39-.42l.09-3.07c0-.22.15-.39.42-.39.22,0,.4.19.39.42l-.09,3.07c0,.22-.19.39-.41.39Z"/><path class="cls-2" d="m26.52,7.44c-.1,0-.21-.04-.29-.12-.16-.16-.16-.41,0-.57l2.16-2.18c.16-.16.41-.16.57,0,.16.16.16.41,0,.57l-2.16,2.18c-.08.08-.18.12-.29.12Z"/><path class="cls-2" d="m32.56,14.93h-.01l-3.07-.1c-.22,0-.4-.19-.39-.42,0-.22.16-.4.42-.39l3.07.1c.22,0,.4.19.39.42,0,.22-.19.39-.41.39Z"/><path class="cls-2" d="m28.73,24.5c-.1,0-.2-.03-.27-.11l-2.27-2.07c-.17-.15-.18-.41-.03-.57.15-.17.41-.18.57-.03l2.27,2.07c.17.15.18.41.03.57-.08.09-.19.13-.3.13Z"/></svg>