<?xml version="1.0" encoding="UTF-8"?><svg id="Capa_1" xmlns="http://www.w3.org/2000/svg" viewBox="0 0 29.43 29.69"><defs><style>.cls-1{fill:#fff;}.cls-2{fill:#161237;}.cls-3{fill:#53398e;}</style></defs><rect class="cls-1" x="0" y=".14" width="29.43" height="29.43" rx="14.72" ry="14.72"/><path class="cls-2" d="m12.84,12.7c-.04.08-.05.15-.09.2-.45.56-.9,1.12-1.35,1.68-2,2.47-3.99,4.94-5.99,7.41-.05.06-.08.15-.08.22,0,.81,0,1.61,0,2.42,0,.05,0,.09,0,.14h12.67v-3.54h-7.13c.05-.09.08-.15.12-.2,2.3-2.94,4.61-5.88,6.91-8.82.07-.08.1-.17.1-.28,0-.82,0-1.64,0-2.46v-.14H5.6v3.39h7.24Z"/><path class="cls-3" d="m24.06,7.64c.11,1.28-1.08,2.51-2.39,2.68-1.34.17-2.38-.33-3.07-1.48-.29-.48-.36-1.04-.26-1.59.24-1.23,1.02-1.98,2.22-2.24,1.58-.35,2.91.53,3.37,1.74.1.27.13.58.19.87-.02,0-.03,0-.05,0Z"/></svg>