<?xml version="1.0" encoding="UTF-8"?><svg id="Capa_1" xmlns="http://www.w3.org/2000/svg" viewBox="0 0 38.16 33.78"><defs><style>.cls-1{fill:#fff;font-family:Inter-Medium, Inter;font-size:3.83px;font-variation-settings:'wght' 500, 'slnt' 0;font-weight:500;}</style></defs><text class="cls-1" transform="translate(2358.8 -489.2) rotate(-84.2)"><tspan x="0" y="0">S</tspan></text><text class="cls-1" transform="translate(2359.03 -491.53) rotate(-73.43)"><tspan x="0" y="0">c</tspan></text><text class="cls-1" transform="translate(2359.65 -493.53) rotate(-64.8)"><tspan x="0" y="0">r</tspan></text><text class="cls-1" transform="translate(2360.17 -494.74) rotate(-56.3)"><tspan x="0" y="0">o</tspan></text><text class="cls-1" transform="translate(2361.44 -496.56) rotate(-48.76)"><tspan x="0" y="0">l</tspan></text><text class="cls-1" transform="translate(2362.04 -497.25) rotate(-44.32)"><tspan x="0" y="0">l</tspan></text><text class="cls-1" transform="translate(2362.69 -497.89) rotate(-39.7)"><tspan x="0" y="0"> </tspan></text><text class="cls-1" transform="translate(2363.37 -498.53) rotate(-31.8)"><tspan x="0" y="0">d</tspan></text><text class="cls-1" transform="translate(2365.3 -499.73) rotate(-20.82)"><tspan x="0" y="0">o</tspan></text><text class="cls-1" transform="translate(2367.29 -500.56) rotate(-8.14)"><tspan x="0" y="0">w</tspan></text><text class="cls-1" transform="translate(2370.28 -500.95) rotate(4.35)"><tspan x="0" y="0">n</tspan></text><text class="cls-1" transform="translate(2372.49 -500.75) rotate(12.1)"><tspan x="0" y="0"> </tspan></text><text class="cls-1" transform="translate(2373.42 -500.56) rotate(17.81)"><tspan x="0" y="0">f</tspan></text><text class="cls-1" transform="translate(2374.64 -500.21) rotate(26.25)"><tspan x="0" y="0">o</tspan></text><text class="cls-1" transform="translate(2376.62 -499.21) rotate(35.07)"><tspan x="0" y="0">r</tspan></text><text class="cls-1" transform="translate(2377.76 -498.4) rotate(40.82)"><tspan x="0" y="0"> </tspan></text><text class="cls-1" transform="translate(2378.53 -497.89) rotate(50.98)"><tspan x="0" y="0">m</tspan></text><text class="cls-1" transform="translate(2380.54 -495.33) rotate(64.27)"><tspan x="0" y="0">o</tspan></text><text class="cls-1" transform="translate(2381.48 -493.31) rotate(73.26)"><tspan x="0" y="0">r</tspan></text><text class="cls-1" transform="translate(2381.9 -492.05) rotate(81.67)"><tspan x="0" y="0">e</tspan></text><g id="ofFyx9"><path d="m33.51,14.83c0-.12-.05-.15-.16-.15-.3,0-.6,0-.9,0-.17,0-.23-.05-.25-.22-.11-.77-.29-1.53-.55-2.27-1.29-3.58-3.67-6.16-7.14-7.72-.06-.03-.15-.02-.16-.12.01,0,.02,0,.02,0,1.99,0,3.97,0,5.96,0,.12,0,.17.04.21.15.22.7,1.03,1.19,1.84,1.08.89-.12,1.62-.97,1.44-2-.13-.76-.73-1.31-1.46-1.38-.85-.08-1.51.3-1.81,1.06-.05.13-.11.16-.25.16-2.93,0-5.86,0-8.79,0-.19,0-.23-.07-.22-.23,0-.47,0-.94,0-1.42,0-.15-.03-.21-.2-.21-1.48,0-2.95,0-4.43,0-.14,0-.18.05-.18.18,0,.47,0,.94,0,1.42,0,.22-.07.26-.27.26-1.46,0-2.92,0-4.38,0-1.32,0-2.64,0-3.96,0-.14,0-.21-.03-.26-.17-.29-.73-.93-1.12-1.73-1.06-.83.06-1.5.7-1.56,1.5-.07.9.46,1.67,1.29,1.86.84.2,1.68-.22,1.98-1,.06-.16.14-.21.31-.21,1.99,0,3.98,0,5.98,0h.34s-.04.07-.05.07c-.04.02-.08.04-.12.05-3.11,1.38-5.37,3.62-6.77,6.73-.46,1.02-.77,2.09-.93,3.2-.03.23-.11.32-.35.3-.24-.03-.49,0-.74,0-.11,0-.17.02-.17.15,0,.98,0,1.96,0,2.95,0,.11.04.14.15.14.98,0,1.96,0,2.95,0,.11,0,.15-.04.15-.14,0-.98,0-1.96,0-2.95,0-.11-.04-.14-.15-.14-.23,0-.46,0-.7,0-.19.01-.24-.04-.21-.24.34-1.96,1.09-3.73,2.29-5.31,1.71-2.25,3.95-3.72,6.68-4.44.2-.05.24,0,.23.19-.01.44,0,.88,0,1.33,0,.14.05.18.18.18,1.48,0,2.95-.01,4.43-.01.15,0,.19-.05.19-.2,0-.47,0-.94-.01-1.42,0-.28,0-.29.27-.23,3.41.7,6.09,2.5,7.98,5.43.9,1.38,1.45,2.9,1.73,4.52.02.14,0,.21-.16.2-.21,0-.42,0-.63,0-.14,0-.2.03-.2.18,0,.96,0,1.92,0,2.88,0,.12.03.17.16.17.97,0,1.95,0,2.92,0,.12,0,.15-.05.15-.16,0-.97,0-1.95,0-2.92Zm-1.41-11.75c.44,0,.8.35.8.79,0,.43-.35.8-.78.79-.43,0-.78-.36-.78-.79,0-.43.34-.78.76-.79Zm-26.05,1.57c-.44,0-.78-.34-.78-.78,0-.44.34-.79.77-.79.42,0,.78.35.78.78,0,.44-.34.79-.77.79Zm1.36,11.1c0,.36,0,.72,0,1.08,0,.11-.05.14-.15.14-.18,0-.36,0-.54,0h0c-.16,0-.33,0-.49,0-.13,0-.19-.03-.19-.17,0-.34,0-.69,0-1.03,0-.11.03-.16.15-.16.36,0,.72,0,1.08,0,.11,0,.14.05.14.15Zm12.73-10.31c-.83,0-1.66,0-2.49,0-.18,0-.23-.06-.23-.23.01-.42,0-.84,0-1.26h0c0-.42,0-.84,0-1.26,0-.16.03-.22.21-.22.84,0,1.68,0,2.52,0,.17,0,.22.05.22.21,0,.85,0,1.69,0,2.54,0,.17-.06.21-.22.21Zm12.39,11.49c-.14.13-.41.03-.63.04-.18,0-.36,0-.54,0-.12,0-.16-.04-.16-.16,0-.35,0-.7,0-1.05,0-.11.03-.16.15-.16.36,0,.72,0,1.08,0,.1,0,.15.04.15.14,0,.18,0,.36,0,.59-.02.17.1.45-.05.6Z"/><path d="m26.05,19.99c-1.15-2.35-2.3-4.71-3.44-7.06-.88-1.81-1.76-3.62-2.64-5.43-.07-.15-.16-.19-.31-.19-.43,0-.85.01-1.28,0-.18,0-.28.06-.36.22-2.02,4.15-4.04,8.31-6.07,12.46-.09.18-.06.26.11.36,1.01.66,1.93,1.43,2.61,2.44.58.85.93,1.81,1.21,2.79.15.54.15.54-.42.54-.02,0-.03,0-.04,0-.15-.02-.19.04-.19.19.01.39,0,.78,0,1.17,0,.18-.06.24-.23.22-.17-.01-.35,0-.52,0-.19-.02-.25.04-.25.24,0,1.35,0,2.7,0,4.05,0,.2.06.25.25.25,1.5,0,3,0,4.5,0h0c.27,0,.54,0,.81,0,1.24,0,2.47,0,3.71,0,.2,0,.27-.06.27-.27-.02-.48,0-.96,0-1.44,0-.87,0-1.74,0-2.61,0-.17-.04-.23-.21-.21-.17.01-.35,0-.52,0-.2.02-.28-.04-.27-.25.02-.38,0-.76,0-1.15,0-.14-.04-.19-.18-.18-.14,0-.28,0-.43,0-.12,0-.18-.02-.14-.16.29-1.11.65-2.18,1.29-3.14.69-1.03,1.63-1.79,2.64-2.47.16-.11.17-.19.09-.35Zm-7.03-2.81c.49.01.88.42.87.9-.01.49-.42.88-.9.88-.5,0-.9-.43-.88-.92.02-.5.41-.87.91-.86Zm3.55,11.43c.21,0,.27.05.26.26-.01.72-.01,1.44,0,2.16,0,.22-.07.26-.27.25-1.19,0-2.38,0-3.57,0-1.2,0-2.4,0-3.6,0-.18,0-.23-.05-.23-.23,0-.74,0-1.48,0-2.23,0-.18.06-.22.23-.22,2.39,0,4.78,0,7.17,0Zm-6.42-1.19c.02-.44-.04-.38.39-.38.82,0,1.65,0,2.47,0,.87,0,1.74,0,2.61,0,.17,0,.22.05.22.21,0,.43,0,.43-.42.43-1.66,0-3.33,0-4.99,0-.21,0-.29-.05-.28-.27Zm8.62-7.39c-.99.75-1.9,1.59-2.51,2.69-.55.99-.94,2.06-1.19,3.16-.04.19-.11.23-.3.23-1.19,0-2.38-.01-3.57,0-.19,0-.25-.06-.29-.24-.29-1.27-.73-2.49-1.44-3.58-.58-.88-1.34-1.59-2.18-2.22-.2-.15-.23-.25-.12-.48,1.74-3.56,3.48-7.12,5.21-10.68.03-.06.03-.15.12-.18.06.06.03.13.03.19,0,2.38,0,4.75,0,7.13,0,.17-.03.26-.21.33-.8.3-1.25,1.1-1.13,1.96.11.8.81,1.46,1.62,1.54.85.08,1.64-.43,1.91-1.23.27-.79-.04-1.67-.75-2.12-.07-.04-.14-.1-.22-.11-.29-.03-.32-.23-.31-.46.05-1.14.01-2.28.02-3.42,0-1.19,0-2.38,0-3.57v-.22c.09-.01.09.05.11.09.69,1.41,1.38,2.83,2.06,4.24,1.07,2.2,2.14,4.4,3.22,6.6.08.17.05.24-.09.34Z"/></g></svg>