<?xml version="1.0" encoding="UTF-8"?><svg id="Capa_1" xmlns="http://www.w3.org/2000/svg" viewBox="0 0 38.16 33.78"><defs><style>.cls-1{fill:#fff;font-family:Inter-Medium, Inter;font-size:3.83px;font-variation-settings:'wght' 500, 'slnt' 0;font-weight:500;}</style></defs><text class="cls-1" transform="translate(2358.8 -525.77) rotate(-84.2)"><tspan x="0" y="0">S</tspan></text><text class="cls-1" transform="translate(2359.03 -528.09) rotate(-73.43)"><tspan x="0" y="0">c</tspan></text><text class="cls-1" transform="translate(2359.65 -530.1) rotate(-64.8)"><tspan x="0" y="0">r</tspan></text><text class="cls-1" transform="translate(2360.17 -531.31) rotate(-56.3)"><tspan x="0" y="0">o</tspan></text><text class="cls-1" transform="translate(2361.44 -533.13) rotate(-48.76)"><tspan x="0" y="0">l</tspan></text><text class="cls-1" transform="translate(2362.04 -533.82) rotate(-44.32)"><tspan x="0" y="0">l</tspan></text><text class="cls-1" transform="translate(2362.69 -534.46) rotate(-39.7)"><tspan x="0" y="0"> </tspan></text><text class="cls-1" transform="translate(2363.37 -535.09) rotate(-31.8)"><tspan x="0" y="0">d</tspan></text><text class="cls-1" transform="translate(2365.3 -536.3) rotate(-20.82)"><tspan x="0" y="0">o</tspan></text><text class="cls-1" transform="translate(2367.29 -537.12) rotate(-8.14)"><tspan x="0" y="0">w</tspan></text><text class="cls-1" transform="translate(2370.28 -537.52) rotate(4.35)"><tspan x="0" y="0">n</tspan></text><text class="cls-1" transform="translate(2372.49 -537.31) rotate(12.1)"><tspan x="0" y="0"> </tspan></text><text class="cls-1" transform="translate(2373.42 -537.13) rotate(17.81)"><tspan x="0" y="0">f</tspan></text><text class="cls-1" transform="translate(2374.64 -536.78) rotate(26.25)"><tspan x="0" y="0">o</tspan></text><text class="cls-1" transform="translate(2376.62 -535.78) rotate(35.07)"><tspan x="0" y="0">r</tspan></text><text class="cls-1" transform="translate(2377.76 -534.97) rotate(40.82)"><tspan x="0" y="0"> </tspan></text><text class="cls-1" transform="translate(2378.53 -534.46) rotate(50.98)"><tspan x="0" y="0">m</tspan></text><text class="cls-1" transform="translate(2380.54 -531.9) rotate(64.27)"><tspan x="0" y="0">o</tspan></text><text class="cls-1" transform="translate(2381.48 -529.87) rotate(73.26)"><tspan x="0" y="0">r</tspan></text><text class="cls-1" transform="translate(2381.9 -528.62) rotate(81.67)"><tspan x="0" y="0">e</tspan></text><path d="m21.2,22.07c-1.48-1.48-2.96-2.95-4.43-4.44-.2-.2-.38-.46-.48-.72-.3-.8.11-1.74.91-2.14-.13-.26-.3-.51-.39-.78-.29-.96.24-2.04,1.34-2.18.65-.08,1.17.1,1.63.56.84.85,1.69,1.69,2.54,2.53.06.06.13.12.21.19.28-.54.7-.91,1.28-1,.58-.09,1.11.08,1.57.54.11-.14.24-.26.31-.4.23-.43,1.08-.7,1.58-.61.45.09.8.32,1.13.65,1.92,1.93,3.85,3.85,5.77,5.78.42.43.64.94.71,1.55.1.93-.25,1.65-.89,2.28-1.4,1.4-2.8,2.8-4.2,4.2-.18.18-.37.27-.63.27-.92-.01-1.84-.01-2.75,0-.55,0-1.07-.13-1.56-.37-1.58-.79-3.16-1.6-4.74-2.41-.6-.31-1.19-.62-1.79-.93-.64-.32-.8-.6-.63-1.28.08-.31.23-.59.37-.88.26-.55,1.06-.72,1.54-.62.51.11,1.04.17,1.56.26.01-.02.03-.04.04-.06Zm6.28,5.21c.53,0,.96.02,1.39,0,.15,0,.34-.09.45-.19.61-.59,1.22-1.19,1.81-1.8.8-.82,1.63-1.62,2.39-2.48.39-.44.51-1.04.16-1.58-.29-.45-.66-.86-1.04-1.25-1.65-1.67-3.31-3.33-4.98-4.97-.18-.17-.46-.29-.71-.32-.26-.04-.47.16-.56.41-.09.28,0,.54.2.75.27.29.56.57.84.85.24.24.27.59.08.78-.19.19-.6.16-.82-.07-.66-.67-1.33-1.33-2-1.99-.33-.33-.79-.38-1.04-.12-.31.31-.27.67.1,1.05.45.47.9.94,1.35,1.41.26.27.28.55.04.77-.23.21-.55.19-.78-.04-.84-.84-1.67-1.67-2.51-2.51-.98-.98-1.95-1.96-2.93-2.93-.35-.35-.93-.24-1.07.18-.1.31-.04.58.21.83,1.77,1.76,3.54,3.53,5.31,5.3.27.27.31.68.09.87-.21.19-.6.15-.84-.1-1.38-1.38-2.77-2.77-4.15-4.15-.27-.27-.79-.31-1.01-.09-.27.28-.24.7.07,1.01,2.08,2.08,4.16,4.16,6.24,6.24.06.06.13.12.19.19.18.23.27.49.05.74-.21.24-.46.23-.74.11-.64-.28-1.28-.6-1.95-.81-.63-.2-1.29-.31-1.94-.42-.31-.06-.47.12-.61.53-.1.31.16.31.31.38,1.35.7,2.7,1.4,4.05,2.09.77.39,1.55.78,2.32,1.16.68.33,1.42.15,2.03.2Z"/><path d="m20.34,5.21H6.29v21.23c.08,0,.19,0,.29,0,4.65,0,9.29,0,13.94,0,.08,0,.15,0,.23,0,.34,0,.64.25.65.52,0,.28-.3.54-.66.54-2.17,0-4.34,0-6.51,0-2.78,0-5.55,0-8.33,0-.56,0-.7-.14-.7-.7,0-7.32,0-14.65,0-21.97,0-.55.15-.7.7-.7,4.91,0,9.82,0,14.74,0,.57,0,.76.19.76.77,0,1.77,0,3.54,0,5.31,0,.18-.1.41-.23.54-.11.1-.36.16-.49.1-.15-.07-.29-.27-.32-.43-.05-.36-.02-.73-.02-1.09,0-1.36,0-2.72,0-4.12Z"/><path d="m13.28,6.26c1.75,0,3.49,0,5.24,0,.56,0,.76.2.76.74,0,.6,0,1.19,0,1.79,0,.41-.24.65-.65.65-3.57,0-7.14,0-10.71,0-.41,0-.58-.18-.59-.57,0-.67,0-1.35,0-2.02,0-.42.18-.59.61-.59,1.78,0,3.56,0,5.34,0Zm4.93,1.08h-9.8v1.02h9.8v-1.02Z"/><path d="m7.33,13.66c0-.84,0-1.68,0-2.52,0-.46.17-.63.63-.63,1.34,0,2.67,0,4.01,0,.44,0,.67.23.67.67,0,1.68,0,3.36,0,5.04,0,.43-.23.66-.67.67-1.35,0-2.7,0-4.05,0-.42,0-.59-.18-.6-.6,0-.87,0-1.75,0-2.62Zm1.07,2.14h3.16v-4.22h-3.16v4.22Z"/><path d="m10.45,19.01c-.84,0-1.68,0-2.52,0-.39,0-.6-.19-.6-.53,0-.34.21-.53.6-.53,1.7,0,3.4,0,5.1,0,.36,0,.67.25.67.53,0,.28-.3.53-.67.53-.86,0-1.72,0-2.58,0Z"/><path d="m10.47,21.13c-.84,0-1.68,0-2.52,0-.42,0-.63-.18-.62-.54,0-.34.21-.52.61-.52,1.7,0,3.4,0,5.1,0,.36,0,.67.25.66.54,0,.29-.31.52-.67.52-.85,0-1.7,0-2.55,0Z"/><path d="m10.48,23.26c-.85,0-1.7,0-2.55,0-.39,0-.6-.19-.6-.53,0-.34.2-.53.6-.53,1.7,0,3.4,0,5.1,0,.36,0,.67.25.67.53,0,.28-.31.53-.67.53-.85,0-1.7,0-2.55,0Z"/><path d="m12.59,29.63c-.28,0-.49-.23-.48-.54,0-.3.23-.53.51-.52.27,0,.56.3.55.54,0,.25-.31.52-.58.52Z"/><path d="m3.08,16.85c0-4.38,0-8.76,0-13.14,0-.99.8-1.69,1.71-1.69,3.31,0,6.62,0,9.93,0,2.28,0,4.56,0,6.84,0,.32,0,.66.08.97.2.71.26,1,.86,1,1.55.03,2.66.01,5.31,0,7.97,0,.36-.26.63-.57.63-.31,0-.49-.23-.49-.64,0-2.57,0-5.13,0-7.7,0-.7-.25-.95-.96-.95-5.51,0-11.02,0-16.53,0-.59,0-.85.27-.84.84.01,8.67.01,17.35,0,26.02,0,.46.31.78.78.77,5.58-.02,11.15-.02,16.73,0,.46,0,.85-.36.83-.83-.02-.63,0-1.26,0-1.89,0-.38.19-.61.49-.61.31,0,.57.27.57.63,0,.66.02,1.33,0,1.99-.03,1.01-.82,1.77-1.8,1.76-5.61,0-11.22-.02-16.83,0-1.02,0-1.83-.81-1.83-1.83.03-4.36.01-8.72.01-13.08Z"/><path d="m29.89,6.76c0-.39,0-.78,0-1.17,0-.29.15-.46.39-.47.24,0,.46.21.46.47,0,.79,0,1.58,0,2.37,0,.26-.23.47-.47.47-.24,0-.38-.18-.38-.47,0-.4,0-.8,0-1.2Z"/><path d="m30.32,11.55c-2.63,0-4.77-2.14-4.77-4.77s2.14-4.77,4.77-4.77,4.77,2.14,4.77,4.77-2.14,4.77-4.77,4.77Zm0-8.61c-2.12,0-3.84,1.72-3.84,3.84s1.72,3.84,3.84,3.84,3.84-1.72,3.84-3.84-1.72-3.84-3.84-3.84Z"/></svg>