<?xml version="1.0" encoding="UTF-8"?><svg id="Capa_1" xmlns="http://www.w3.org/2000/svg" viewBox="0 0 38.16 33.78"><defs><style>.cls-1{fill:#fff;font-family:Inter-Medium, Inter;font-size:3.83px;font-variation-settings:'wght' 500, 'slnt' 0;font-weight:500;}.cls-2{stroke:#010101;stroke-miterlimit:10;stroke-width:.05px;}</style></defs><text class="cls-1" transform="translate(2481.34 -489.2) rotate(-84.2)"><tspan x="0" y="0">S</tspan></text><text class="cls-1" transform="translate(2481.58 -491.53) rotate(-73.43)"><tspan x="0" y="0">c</tspan></text><text class="cls-1" transform="translate(2482.2 -493.53) rotate(-64.8)"><tspan x="0" y="0">r</tspan></text><text class="cls-1" transform="translate(2482.72 -494.74) rotate(-56.3)"><tspan x="0" y="0">o</tspan></text><text class="cls-1" transform="translate(2483.98 -496.56) rotate(-48.76)"><tspan x="0" y="0">l</tspan></text><text class="cls-1" transform="translate(2484.58 -497.25) rotate(-44.32)"><tspan x="0" y="0">l</tspan></text><text class="cls-1" transform="translate(2485.23 -497.89) rotate(-39.7)"><tspan x="0" y="0"> </tspan></text><text class="cls-1" transform="translate(2485.92 -498.53) rotate(-31.8)"><tspan x="0" y="0">d</tspan></text><text class="cls-1" transform="translate(2487.85 -499.73) rotate(-20.82)"><tspan x="0" y="0">o</tspan></text><text class="cls-1" transform="translate(2489.84 -500.56) rotate(-8.14)"><tspan x="0" y="0">w</tspan></text><text class="cls-1" transform="translate(2492.83 -500.95) rotate(4.35)"><tspan x="0" y="0">n</tspan></text><text class="cls-1" transform="translate(2495.03 -500.75) rotate(12.1)"><tspan x="0" y="0"> </tspan></text><text class="cls-1" transform="translate(2495.97 -500.56) rotate(17.81)"><tspan x="0" y="0">f</tspan></text><text class="cls-1" transform="translate(2497.19 -500.21) rotate(26.25)"><tspan x="0" y="0">o</tspan></text><text class="cls-1" transform="translate(2499.16 -499.21) rotate(35.07)"><tspan x="0" y="0">r</tspan></text><text class="cls-1" transform="translate(2500.31 -498.4) rotate(40.82)"><tspan x="0" y="0"> </tspan></text><text class="cls-1" transform="translate(2501.07 -497.89) rotate(50.98)"><tspan x="0" y="0">m</tspan></text><text class="cls-1" transform="translate(2503.08 -495.33) rotate(64.27)"><tspan x="0" y="0">o</tspan></text><text class="cls-1" transform="translate(2504.03 -493.31) rotate(73.26)"><tspan x="0" y="0">r</tspan></text><text class="cls-1" transform="translate(2504.45 -492.05) rotate(81.67)"><tspan x="0" y="0">e</tspan></text><path class="cls-2" d="m10.53,31.25c-1.81,0-3.62,0-5.43,0-.17,0-.33,0-.49-.04-.36-.08-.51-.28-.49-.64,0-.15.05-.29.1-.42.37-1.13.73-2.26.99-3.41.15-.67.28-1.35.34-2.04.09-1.09-.16-2.08-.83-2.96-.37-.48-.74-.95-1.11-1.43-.52-.68-1.03-1.37-1.4-2.15-.48-1.03-.77-2.12-.94-3.24-.14-.94-.2-1.89-.14-2.85.13-2,.82-3.77,2.06-5.33,1.77-2.22,4.05-3.56,6.85-4.03,1.18-.2,2.38-.29,3.58-.22,1.94.11,3.72.69,5.27,1.9.23.18.2.15.39,0,1.4-1.09,2.99-1.68,4.75-1.85,1.93-.18,3.84-.05,5.68.55,3.18,1.03,5.44,3.09,6.73,6.19.48,1.17.64,2.4.62,3.66-.02,1.71-.31,3.37-.98,4.95-.28.65-.64,1.25-1.06,1.81-.49.65-1,1.29-1.5,1.94-.45.58-.77,1.21-.87,1.95-.08.62-.05,1.24.05,1.86.25,1.53.7,3.01,1.18,4.48.06.19.13.39.17.59.07.37-.11.62-.48.7-.14.03-.29.04-.43.04-1.26,0-2.53.02-3.79.02-2.36.01-4.73.03-7.09.04-.18,0-.37,0-.55-.04-.32-.09-.49-.33-.43-.66.02-.14.07-.28.12-.42.41-1.14.48-2.31.27-3.51-.07-.39-.28-.65-.67-.75-.17-.04-.34-.09-.52-.09-.9,0-1.81,0-2.71,0-.19,0-.37.04-.55.08-.38.1-.61.34-.67.72-.09.54-.15,1.08-.12,1.63.04.67.17,1.33.4,1.96.05.15.1.29.11.45,0,.29-.13.48-.4.57-.16.05-.33.05-.49.05-1.83,0-3.66,0-5.49,0,0-.02,0-.04,0-.06Zm5.76-5.65s-.04-.06-.06-.07c-.46-.25-.62-.66-.62-1.17,0-.48.09-.95.09-1.43,0-.32-.11-.56-.36-.75-.31-.23-.37-.48-.24-.85.04-.11.04-.19-.05-.28-.22-.23-.24-.5-.14-.79.05-.15.12-.29.18-.43.06-.13.11-.27.17-.4.04-.1.01-.17-.09-.21-.1-.04-.2-.09-.29-.13-.25-.12-.5-.22-.74-.35-.51-.28-.65-.68-.46-1.23.09-.27.24-.51.4-.74.58-.87,1.14-1.76,1.7-2.66.22-.36.27-.72.13-1.11-.36-1.04-.38-2.11-.12-3.16.43-1.73,1.32-3.21,2.49-4.53.26-.3.27-.29-.05-.52-1.49-1.08-3.19-1.55-5.01-1.61-1-.03-2,.06-2.99.22-2.44.39-4.48,1.49-6.12,3.35-1.53,1.73-2.3,3.74-2.29,6.05,0,.63.04,1.26.13,1.89.17,1.12.44,2.21.94,3.24.36.73.84,1.38,1.34,2.01.36.47.73.93,1.09,1.41.66.88.97,1.87.96,2.97,0,.61-.1,1.2-.21,1.79-.26,1.37-.67,2.7-1.1,4.02-.04.12-.1.23-.09.36.36.09,11,.13,11.25.04-.02-.06-.04-.13-.06-.19-.36-1.05-.47-2.12-.35-3.22.06-.56.13-1.1.56-1.51Zm16.99,4.92c0-.18-.06-.3-.1-.42-.51-1.58-1-3.17-1.23-4.83-.09-.63-.11-1.26,0-1.89.13-.81.48-1.52.97-2.16.46-.6.93-1.2,1.39-1.8.79-1.01,1.33-2.15,1.63-3.39.21-.86.34-1.73.39-2.62.06-1.18-.03-2.34-.42-3.45-1-2.87-2.98-4.83-5.77-5.98-1.01-.42-2.08-.61-3.17-.72-1.22-.12-2.43-.14-3.63.08-1.26.24-2.42.71-3.46,1.48-.08.06-.18.11-.23.22.05.05.09.1.13.14,1.05,1.1,1.82,2.38,2.35,3.79.5,1.33.59,2.69.13,4.06-.13.38-.08.72.13,1.06.58.95,1.19,1.9,1.81,2.83.11.17.21.35.29.54.22.59.07,1.02-.49,1.32-.29.16-.6.28-.9.42-.22.1-.22.11-.14.33.09.23.19.45.28.67.13.32.13.63-.13.89-.07.07-.07.14-.04.23.15.45.1.61-.27.91-.21.17-.32.39-.33.66,0,.15,0,.29.02.44.04.35.08.7.08,1.05,0,.52-.17.93-.64,1.19-.01,0-.02.03-.03.06.23.26.39.56.46.92.22,1.28.17,2.54-.25,3.77-.03.08-.08.16-.04.29,3.73-.03,7.47,0,11.23-.07Zm-11.49-6.33c.05-.36-.01-.72-.08-1.07-.02-.13-.03-.25,0-.38.09-.39.22-.77.56-1.03.12-.09.1-.17.02-.26-.03-.04-.06-.08-.09-.12q-.27-.33.07-.58s.02-.01.02-.02c.24-.18.26-.23.16-.51-.08-.21-.16-.42-.25-.62-.17-.4-.08-.68.28-.92.2-.13.39-.25.61-.33.19-.07.38-.15.56-.24.17-.08.18-.13.13-.31-.08-.26-.2-.5-.37-.72-.09-.12-.21-.23-.28-.37-.24-.5-.61-.92-.88-1.4-.18-.33-.41-.63-.58-.97-.1-.21-.26-.4-.25-.64.01-.27,0-.55.1-.81.12-.32.16-.66.21-.99.04-.27.09-.53.07-.81-.03-.45-.1-.89-.21-1.32-.12-.47-.3-.92-.52-1.36-.06-.13-.17-.24-.23-.37-.21-.56-.6-1.02-.92-1.51-.1-.16-.27-.28-.38-.44-.1-.16-.23-.29-.36-.42-.15-.15-.15-.15-.3,0-.8.81-1.4,1.76-1.88,2.79-.13.27-.21.56-.33.84-.22.51-.35,1.03-.33,1.58,0,.11,0,.22-.02.32-.08.32-.03.65.06.95.12.44.23.88.29,1.33.04.25-.02.48-.15.7-.35.57-.71,1.14-1.06,1.71-.33.53-.68,1.04-.98,1.59-.07.12-.13.24-.16.37-.03.11,0,.21.11.27.17.09.34.21.53.24.3.06.53.24.76.41.25.18.38.35.22.76-.1.26-.2.53-.32.78-.12.28-.12.29.15.42.06.03.12.06.17.11.19.15.19.21.05.4-.02.03-.05.06-.07.09-.19.26-.19.26.03.48.11.12.27.2.31.38.13.53.21,1.06.07,1.61-.07.25-.05.5-.03.75,0,.14.08.23.21.28.22.09.43.16.67.2.42.06.85.01,1.28.05.56.05,1.12-.04,1.69,0,.47.03.92-.13,1.38-.19.16-.02.23-.14.23-.29,0-.14,0-.27,0-.41Z"/><rect x="17.06" y="6.47" width="3.41" height=".48" transform="translate(-1.16 6.65) rotate(-19.49)"/><rect x="16.41" y="7.7" width="4.72" height=".48" transform="translate(-1.59 6.92) rotate(-20.06)"/><rect x="15.81" y="8.99" width="5.91" height=".48" transform="translate(-2.07 7.44) rotate(-21.29)"/><rect x="15.49" y="10.25" width="6.79" height=".48" transform="translate(-2.54 7.72) rotate(-21.69)"/><rect x="15.69" y="11.6" width="6.57" height=".48" transform="translate(-2.97 7.5) rotate(-20.77)"/><rect x="15.69" y="13.14" width="6.57" height=".48" transform="translate(-3.51 7.6) rotate(-20.77)"/><rect x="14.34" y="14.79" width="7.93" height=".48" transform="translate(-3.98 7.01) rotate(-19.59)"/><rect x="13.75" y="16.3" width="9.18" height=".48" transform="translate(-4.41 6.94) rotate(-19.17)"/><rect x="14.92" y="17.56" width="8.64" height=".48" transform="translate(-4.82 7.41) rotate(-19.43)"/><rect x="14.89" y="18.96" width="9.59" height=".48" transform="translate(-5.26 7.63) rotate(-19.41)"/><rect x="15.71" y="20.56" width="7.43" height=".48" transform="translate(-5.62 7.27) rotate(-18.58)"/><rect x="15.71" y="22.2" width="7.43" height=".48" transform="translate(-6.14 7.36) rotate(-18.58)"/><rect x="16" y="23.91" width="6.38" height=".48" transform="translate(-6.35 6.86) rotate(-17.43)"/></svg>