<?xml version="1.0" encoding="UTF-8"?><svg id="Capa_1" xmlns="http://www.w3.org/2000/svg" viewBox="0 0 38.16 33.78"><defs><style>.cls-1{fill:#fff;font-family:Inter-Medium, Inter;font-size:3.83px;font-variation-settings:'wght' 500, 'slnt' 0;font-weight:500;}</style></defs><text class="cls-1" transform="translate(2440.63 -525.77) rotate(-84.2)"><tspan x="0" y="0">S</tspan></text><text class="cls-1" transform="translate(2440.86 -528.09) rotate(-73.43)"><tspan x="0" y="0">c</tspan></text><text class="cls-1" transform="translate(2441.48 -530.1) rotate(-64.8)"><tspan x="0" y="0">r</tspan></text><text class="cls-1" transform="translate(2442 -531.31) rotate(-56.3)"><tspan x="0" y="0">o</tspan></text><text class="cls-1" transform="translate(2443.27 -533.13) rotate(-48.76)"><tspan x="0" y="0">l</tspan></text><text class="cls-1" transform="translate(2443.87 -533.82) rotate(-44.32)"><tspan x="0" y="0">l</tspan></text><text class="cls-1" transform="translate(2444.52 -534.46) rotate(-39.7)"><tspan x="0" y="0"> </tspan></text><text class="cls-1" transform="translate(2445.2 -535.09) rotate(-31.8)"><tspan x="0" y="0">d</tspan></text><text class="cls-1" transform="translate(2447.13 -536.3) rotate(-20.82)"><tspan x="0" y="0">o</tspan></text><text class="cls-1" transform="translate(2449.12 -537.12) rotate(-8.14)"><tspan x="0" y="0">w</tspan></text><text class="cls-1" transform="translate(2452.11 -537.52) rotate(4.35)"><tspan x="0" y="0">n</tspan></text><text class="cls-1" transform="translate(2454.32 -537.31) rotate(12.1)"><tspan x="0" y="0"> </tspan></text><text class="cls-1" transform="translate(2455.25 -537.13) rotate(17.81)"><tspan x="0" y="0">f</tspan></text><text class="cls-1" transform="translate(2456.47 -536.78) rotate(26.25)"><tspan x="0" y="0">o</tspan></text><text class="cls-1" transform="translate(2458.45 -535.78) rotate(35.07)"><tspan x="0" y="0">r</tspan></text><text class="cls-1" transform="translate(2459.59 -534.97) rotate(40.82)"><tspan x="0" y="0"> </tspan></text><text class="cls-1" transform="translate(2460.36 -534.46) rotate(50.98)"><tspan x="0" y="0">m</tspan></text><text class="cls-1" transform="translate(2462.37 -531.9) rotate(64.27)"><tspan x="0" y="0">o</tspan></text><text class="cls-1" transform="translate(2463.31 -529.87) rotate(73.26)"><tspan x="0" y="0">r</tspan></text><text class="cls-1" transform="translate(2463.73 -528.62) rotate(81.67)"><tspan x="0" y="0">e</tspan></text><path d="m22.23,32.31c-.05-.24-.1-.46-.15-.69.28-.08.57-.14.83-.24.68-.25,1.36-.49,2.03-.77.98-.42,1.88-.99,2.73-1.63.99-.75,1.89-1.6,2.67-2.57.09-.11.15-.12.25-.03.1.09.2.18.31.25.12.07.11.14.03.23-.28.31-.54.63-.82.93-.96,1.01-2.03,1.88-3.22,2.61-.86.53-1.77.98-2.72,1.33-.56.2-1.13.36-1.69.54-.07.02-.15.02-.24.03Z"/><path d="m7.03,6.71c-.2-.17-.37-.32-.56-.5.32-.33.63-.67.96-.98,1.17-1.13,2.47-2.07,3.94-2.78.77-.37,1.58-.65,2.37-.97.11-.05.19-.03.23.11.04.18.1.35.16.55-2.79.85-5.14,2.38-7.08,4.56Z"/><path d="m26.03,24.17c-.12-.2-.2-.37-.29-.57,0-.04-.04-.08-.04-.08-.04-.08-.16-.16-.16-.16,0-.04-.04-.04-.08-.08-.33-.33-.74-.45-1.23-.49-.53,0-.98.16-1.35.53-.49.45-.69,1.06-.57,1.68.08.61.41,1.06.94,1.39.78.41,1.72.25,2.29-.33.33-.33.53-.74.53-1.19v-.45c-.04-.08-.04-.16-.04-.25Zm-.7.57c0,.08,0,.2-.04.29-.12.37-.33.61-.65.74-.12.04-.25.04-.33.08h-.04c-.16,0-.33-.04-.49-.04t-.04-.04s-.08-.04-.12-.04l-.08-.08c-.57-.37-.69-1.06-.29-1.64.37-.49,1.06-.65,1.59-.29.04.04.08.08.12.12.08.04.12.08.16.12.04.12.12.25.16.33.04.08.04.16.08.29-.04.04-.04.12-.04.16Z"/><path d="m4.7,24.88c.22-.12.42-.24.64-.37.19.29.38.57.56.85.54.81,1.17,1.55,1.86,2.24.71.72,1.5,1.34,2.33,1.91.03.02.06.03.09.05.08.05.14.09.06.2-.09.13-.17.26-.25.4-.06.11-.12.1-.21.04-1.08-.72-2.08-1.54-2.96-2.49-.77-.82-1.44-1.71-2.02-2.66-.03-.06-.07-.11-.11-.17Z"/><path d="m32.98,14.93c.25-.25.37-.57.45-.9.08-.49-.04-.94-.37-1.31-.08-.08-.12-.16-.12-.29V1.89h-5.52v7.11s-.04.08-.04.16c.04,0,.04.04.04.08s0,.12-.04.16v.08s.04,0,.04.04,0,.08-.04.12h-.08c-.37-.04-.74-.08-1.1-.12h-.29v-.53c-.12,0-.2-.04-.33-.04h-.25c-.08,0-.12,0-.2-.04-.49-.04-1.02-.08-1.55-.12-.12,0-.24,0-.29-.16-.12-.33-.24-.69-.41-1.06.49-.57,1.02-1.19,1.55-1.8.08-.12.12-.2,0-.29l-.57-.57c-.33-.33-.61-.65-.94-.98-.57.53-1.14,1.02-1.72,1.51q-.25.2-.53.08c-.29-.16-.61-.25-.9-.41-.08-.82-.12-1.68-.2-2.58h-2.33c-.08.9-.12,1.76-.2,2.58-.37.16-.69.29-1.02.45-.08.04-.12.04-.2,0-.45-.41-.9-.78-1.31-1.14-.2-.16-.41-.33-.61-.49-.53.53-1.1,1.1-1.64,1.64,0,0,0,.04.04.04.53.61,1.06,1.23,1.6,1.88.04.08.08.12,0,.2-.08.16-.12.33-.2.49-.08.16-.12.33-.2.49-.08.04-.16.04-.29.08v-.04h-.16c-.16,0-.29.04-.45.04-.41.04-.82.08-1.19.08-.2.04-.37.04-.57.08v2.33c.12,0,.25,0,.33.04h.74c.08,0,.16.04.24.04.41.04.82.08,1.23.08.12,0,.16.04.2.16.04.2.12.41.2.65h-2.37c-.08,0-.16.04-.24.04s-.2,0-.33-.04c-.2,0-.37.04-.57.04h-.12s-.04-.04-.08-.04h-.9v6.5l-.04.04s0-.04-.04-.04c-.29-.25-.57-.49-.86-.74-.41.45-.86.9-1.31,1.35.04.04.08.08.12.12.25.33.53.65.82.94.25.29.33.49.12.86-.16.25-.12.29-.41.29-.41,0-.78.04-1.19.08-.16,0-.29.04-.45.04v1.88c.49.04.98.12,1.47.12.37-.04.53.12.65.45.04.16.08.29-.08.45-.33.37-.69.78-1.02,1.19-.04.08-.12.12-.04.2l1.19,1.19s.08.04.08.04c.49-.37.94-.78,1.39-1.14.08-.08.16-.12.25-.04.16.04.29.12.45.16.08.04.12.08.12.16,0,.41.04.78.04,1.19.04.2.08.45.08.69h1.88c.04-.41.04-.74.08-1.1,0-.25.04-.49.08-.74,0-.08.04-.12.12-.16.12-.08.29-.12.45-.16.08-.04.16-.04.2,0,.41.33.78.65,1.14.98.08.08.2.16.25.2.45-.45.9-.86,1.35-1.31l-.04-.04c-.37-.45-.74-.86-1.1-1.31-.04-.04-.08-.12-.04-.2.04-.16.12-.37.2-.53.04-.04.08-.08.12-.08.49-.04.98-.08,1.51-.12.08,0,.2-.04.33-.04v-1.88c-.49-.04-.98-.04-1.43-.12-.2,0-.53.12-.53-.29h3.68v-.69c0-.08,0-.16.12-.16h1.92c.08,0,.16.08.2.12.41.69,1.14,1.02,1.88,1.31.41.16.9.25,1.35.33.33.08.69.12,1.02.16.37,0,.69,0,1.06.04h.12s.08-.04.08-.04c.08,0,.12.04.16.04h.16s.08,0,.12-.04l.04.04h.41s-.04.12-.04.16h.04v3.11h5.52v-8.14c0-.08.04-.16.12-.25.2-.29.37-.61.37-.98.04-.45-.08-.9-.41-1.27-.04,0-.04-.08-.04-.12Zm-4.82-12.31h4.05v1.14l.04.04-.04.04v3.23h-2v.74h2v2.25c-.29,0-.57.04-.86.04v.74h.86v1.35h-4.05V2.62Zm-15.21,8.01h-.25s-.08-.04-.12-.04h-.65c-.08,0-.16-.04-.29-.04-.04-.04-.04-.12-.08-.2v-.78c.41,0,.82-.04,1.23-.04h.12c.12,0,.2-.04.29-.04.24-.04.49-.08.74-.08.08,0,.2,0,.2-.16,0-.08.04-.16.04-.29-.16-.08-.2-.12-.04-.25.04-.04.08-.08.16-.12l.04-.04v-.08c.2-.33.37-.65.53-.98-.53-.61-1.06-1.23-1.64-1.88.25-.2.49-.45.7-.65.41.33.82.7,1.27,1.06.16.16.37.29.53.45.04.04.16.04.16.04.57-.41,1.19-.61,1.84-.74.08-.82.12-1.64.2-2.45h.94c.04.65.08,1.27.12,1.92.04.12.04.29.08.41,0,.04.08.12.12.16.61.08,1.15.33,1.64.65.12.08.2.08.33-.04.57-.45,1.14-.94,1.68-1.43.25.25.45.45.69.69-.53.57-1.06,1.23-1.59,1.84.37.57.65,1.14.74,1.84.04.08.12.12.2.16.45,0,.9.04,1.31.04.12,0,.2.04.33.04h.24c.16.04.29.04.41.04.04.2,0,.29-.16.33-.2.08-.41.16-.61.25-.04.04-.12.08-.16.12-.2.08-.41.16-.61.29-.25.08-1.14.74-1.14.74-.7.53-1.31,1.14-1.76,1.88-.04.04-.08.08-.16.08h-1.8v-1.02c.2-.04.41-.12.61-.2.7-.33,1.1-.86,1.27-1.59.2-1.14-.41-2.29-1.59-2.62-1.23-.33-2.37.29-2.78,1.47-.37,1.14.24,2.41,1.39,2.82.04,0,.04.04.08.04h-2.9c-.16.04-.25-.04-.29-.16-.12-.37-.29-.74-.37-1.1-.08-.2-.16-.25-.33-.25-.29,0-.57-.04-.9-.08Zm1.47,11.08c.04.12.04.25.08.37,0,.12.04.2.2.2l1.59.12v.49c-.57.04-1.19.12-1.8.16,0,.16-.29.9-.29.94-.08.12-.16.25-.2.33-.16.16-.04.29.04.41.33.37.65.78.98,1.14-.12.12-.2.29-.33.37-.45-.37-.86-.74-1.27-1.1-.08-.04-.16,0-.24,0-.25.12-1.39.61-1.39.61v.29c-.04.45-.08.94-.12,1.39-.12,0-.2.04-.33.04-.12.04-.2,0-.2-.16,0-.53-.08-1.1-.08-1.64-.37-.16-.74-.29-1.06-.45-.04,0-.08,0-.08-.04-.12-.04-.25-.16-.29-.16-.16.04-.25.16-.37.29-.37.29-.69.57-1.06.9-.12-.12-.2-.25-.33-.41.33-.37.69-.82,1.06-1.23.08-.12.08-.16.04-.29-.24-.37-.41-.74-.49-1.19-.04-.08-.04-.12-.16-.12l-1.59-.12s-.12-.08-.12-.12v-.37c.37-.04.74-.04,1.06-.08.2-.04.45-.08.65-.08.12,0,.12-.04.16-.12.08-.29.16-.57.29-.86.04-.12.12-.25.2-.33.08-.12.08-.16,0-.29-.37-.41-.74-.82-1.1-1.27.12-.08.24-.2.37-.33.33.29.7.57,1.02.86.08.08.16.16.29.25.04,0,.12.04.16,0,.37-.25.82-.45,1.27-.53.12-.04.12-.12.12-.25.04-.41.08-.82.08-1.27,0-.08.04-.16.04-.25h.53c0,.33.04.69.08,1.06,0,.16,0,.37.04.57,0,.04.04.08.08.08.49.12.98.33,1.43.65.25-.2.45-.41.65-.57.25-.2.45-.37.69-.57.08.12.2.2.33.33-.37.45-.74.9-1.1,1.35.16.33.29.65.45.98Zm3.6-3.72c0,.74,0,1.43-.04,2.17v.37s-.08.04-.12.04h-2.45s-.04.04-.04.04c-.04,0-.04-.04-.04-.04h-.25c.37-.41.69-.82,1.02-1.19-.45-.45-.9-.86-1.35-1.31-.2.16-.45.37-.65.53-.24.2-.45.37-.65.57-.08.08-.12.08-.24.04-.12-.08-.25-.16-.41-.2s-.2-.12-.25-.29c0-.53-.04-1.1-.08-1.68h-1.92c0,.37-.04.74-.08,1.1,0,.2,0,.45-.04.65,0,.12-.04.2-.16.2-.12.04-.25.08-.37.12v-6.13h8.1v2.58c0,.08.04.12.04.2v2.09h.12s-.08.08-.12.12Zm.37-6.38c-.7,0-1.51-.74-1.51-1.39.04-1.02.61-1.68,1.55-1.68.78-.04,1.43.69,1.47,1.35.08,1.1-.7,1.64-1.51,1.72Zm13.82,11.2h-.9v.74h.9v1.35h-4.05v-2.53h1.84c.61-.04,1.19-.69,1.19-1.35-.04-.25-.08-.49-.08-.74.33-.08.69-.16,1.1-.25v2.78Zm-.37-7.44c.25,0,.45.04.61.2.25.2.33.69.16,1.02-.08.25-.37.45-.78.45h-4.74v.74h4.05c.2,0,.45.04.65.16.33.16.41.61.29.98-.12.37-.41.53-.82.53h-4.33v.74h2.54c.16.04.33.04.49.08.33.04.49.33.49.74-.04.33-.24.57-.57.61h-2.25c-.08,0-.12.04-.16.04-.08,0-.16-.04-.24-.04h-.04l.04.04c-.37,0-.78,0-1.14-.04-.61-.04-1.23-.08-1.84-.2-.45-.08-.86-.2-1.31-.33-.41-.16-.86-.37-1.14-.74-.16-.16-.2-.41-.33-.65h-2.7v-5.64h1.72v.04c.04.41.08.45.49.41.08-.04.16-.04.25-.08,0-.25.04-.53.08-.78.04-.12.16-.2.24-.33.53-.69,1.19-1.27,1.96-1.76.24-.16.53-.33.82-.49.04,0,.08-.04.12-.04.33-.16.61-.29.9-.41.04,0,.12-.04.16-.08.37-.08.65-.29,1.02-.25.12.04.2.04.33.04,0,0,.04.04.08.04h.29s.12.04.2.04v1.8h-1.51s-.08-.04-.12-.04c-.08,0-.12-.04-.16-.04h-.08s-.08,0-.08-.04c-.08,0-.16-.04-.25-.04h-.08c-.16.08-.37.16-.57.25.16.29.37.45.7.53.74.16,1.47.08,2.21.08h4.38c.45,0,.82.33.86.82,0,.57-.41.9-.86.9h-4.41l-.04-.04s-.08.08-.08.12c-.04.2-.04.41-.04.65h4.58Z"/><path d="m9.15,18.73l-.04.04s0-.04-.04-.04h.08Z"/><path d="m18.14,17.87s-.08.08-.12.12v-.12h.12Z"/><path d="m15.4,20.57s-.04.04-.04.04c-.04,0-.04-.04-.04-.04h.08Z"/><path d="m15.36,20.64s-.02,0-.03.01c0,0,0-.02.01-.03,0,0,0,0,.01.01Z"/><path d="m32.25,3.81l-.04.04v-.08l.04.04Z"/><path d="m14.3,8.59c-.04.12-.08.25-.12.37-.16-.08-.2-.12-.04-.25.04-.04.08-.08.16-.12Z"/><path d="m13.2,22.25c0-.08-.04-.12-.04-.2-.04-.08-.08-.16-.12-.25-.33-.69-1.14-1.06-1.88-.9-.86.16-1.6,1.1-1.39,2,.16.61.49,1.06,1.06,1.31.08,0,.12.04.2.04.33.12.65.12,1.02,0,.45-.12.78-.41.98-.82.2-.33.2-.69.2-1.06v-.12h-.04Zm-1.47,1.35c-.29.04-.57-.04-.82-.16l-.08-.08v-.04c-.41-.37-.41-.98-.04-1.39.37-.45,1.14-.37,1.43,0l.12.12s.04.08.08.16c.12.25.08.53,0,.82-.16.29-.37.49-.69.57Z"/><path d="m31.4,4.59c.01.71-.55,1.21-1.26,1.22-.65,0-1.24-.63-1.21-1.28.03-.59.5-1.27,1.39-1.19.51.04,1.1.46,1.08,1.25Zm-1.71-.05c0,.28.19.51.47.53.26.01.54-.22.52-.47-.02-.34-.16-.48-.51-.51-.25-.02-.47.2-.48.46Z"/><path d="m25.15,24.48s0-.01-.01-.02c0,0,.01,0,.02.01,0,0,0,0,0,0Z"/></svg>